<svg width="400" height="400" xmlns="http://www.w3.org/2000/svg">
  <defs>
    <linearGradient id="grad1" x1="0%" y1="0%" x2="0%" y2="100%">
      <stop offset="0%" style="stop-color:#040c20;stop-opacity:1" />
      <stop offset="100%" style="stop-color:#0c4b82;stop-opacity:1" />
    </linearGradient>
  </defs>
  <g id="Layer_1">
    <title>Layer 1</title>
    <rect id="svg_1" height="340" width="340" y="30" x="30" stroke-width="8" stroke="#ffffff" fill="none" />
    <rect id="svg_2" height="282" width="282" y="58" x="58" stroke-width="8" stroke="#1493f4" fill="url(#grad1)" />
    <path stroke="#ffffff" id="svg_3" d="m124,250.8l162,0l0,7.99999l-162,0l0,-7.99999z" opacity="undefined"
      stroke-width="4" fill="#ffffff" />
    <rect id="svg_5" height="13" width="14" y="152.8" x="161" stroke-width="4" stroke="#ffffff" fill="none" />
    <rect id="svg_6" height="14" width="14" y="181.8" x="162" stroke-width="4" stroke="#ffffff" fill="none" />
    <rect id="svg_7" height="15" width="16" y="213.8" x="161" stroke-width="4" stroke="#ffffff" fill="none" />
    <rect id="svg_8" height="98" width="31" y="157.8" x="211" stroke-width="4" stroke="#ffffff" fill="none" />
    <path stroke="#ffffff" id="svg_11"
      d="m196,247.8c0,0 2,-130 3,-144.8c-6,-11.2 -58,30.8 -58,30c0,0.8 -1,116.8 -1,116.8" opacity="NaN" stroke-width="4"
      fill="none" />
  </g>
</svg>