<svg class="icon" viewBox="0 0 1024 1024" xmlns="http://www.w3.org/2000/svg" width="81" height="81"><path d="M771.773 574.099c-99.633 0-180.692-81.057-180.692-180.689 0-27.766 22.509-50.275 50.275-50.275s50.275 22.509 50.275 50.275c0 44.189 35.952 80.14 80.142 80.14 42.628 0 77.593-33.463 80.006-75.499l-47.295-223.179H220.226l-47.999 223.245c2.445 42.004 37.395 75.434 80.002 75.434 44.189 0 80.14-35.952 80.14-80.14 0-27.766 22.509-50.275 50.275-50.275s50.275 22.509 50.275 50.275c0 99.633-81.057 180.689-180.689 180.689-99.632 0-180.687-81.057-180.687-180.689 0-3.554.375-7.095 1.125-10.565l57.793-268.812c4.98-23.163 25.457-39.708 49.151-39.708h665.612c23.751 0 44.259 16.619 49.184 39.852l56.965 268.812a50.26 50.26 0 0 1 1.091 10.423c0 99.633-81.054 180.689-180.687 180.689z"/><path d="M512 574.099c-99.632 0-180.687-81.057-180.687-180.689 0-27.766 22.509-50.275 50.275-50.275s50.275 22.509 50.275 50.275c0 44.189 35.948 80.14 80.139 80.14s80.14-35.952 80.14-80.14c0-27.766 22.509-50.275 50.275-50.275s50.275 22.509 50.275 50.275c0 99.633-81.057 180.689-180.689 180.689zm358.474 375.578H153.525c-27.766 0-50.275-22.509-50.275-50.275v-249.17c0-27.767 22.509-50.275 50.275-50.275s50.275 22.508 50.275 50.275v198.895h616.4V650.232c0-27.767 22.508-50.275 50.275-50.275s50.275 22.508 50.275 50.275v249.169c0 27.766-22.509 50.276-50.275 50.276z"/></svg>